<svg width="22" height="22" viewBox="0 0 22 22" fill="none" xmlns="http://www.w3.org/2000/svg">
<g clip-path="url(#clip0_224_42)">
<path d="M6.80199 14.6499H16.517V14.6833H6.41699C5.90571 14.6833 5.48366 14.2612 5.48366 13.7499C5.48366 13.5834 5.52643 13.4351 5.59424 13.3164L5.59434 13.3165L5.60108 13.3043L6.83858 11.0584L7.06099 10.6548L6.86349 10.2384L3.56349 3.28089L3.31955 2.76659H2.75033H1.81699V2.73325H3.34304L3.96164 4.04941L4.20471 4.56659H4.77616H18.3337C18.336 4.56659 18.3368 4.56689 18.3377 4.56726C18.3392 4.56791 18.3418 4.56943 18.3447 4.57225C18.3475 4.57508 18.349 4.57772 18.3496 4.57924C18.35 4.58012 18.3503 4.58094 18.3503 4.58325C18.3503 4.58687 18.3501 4.5902 18.3498 4.59304L15.0706 10.5377L15.0695 10.5397C14.9132 10.8248 14.6078 11.0166 14.2545 11.0166H7.42533H6.89418L6.63745 11.4816L5.81245 12.9757L5.75568 13.0785L5.7272 13.1925L5.6997 13.3025L5.67283 13.41V13.5208C5.67283 14.1461 6.1766 14.6499 6.80199 14.6499ZM5.49283 18.3333C5.49283 17.8161 5.91158 17.3999 6.41699 17.3999C6.92827 17.3999 7.35033 17.822 7.35033 18.3333C7.35033 18.8445 6.92827 19.2666 6.41699 19.2666C5.91158 19.2666 5.49283 18.8504 5.49283 18.3333ZM14.6595 18.3333C14.6595 17.8161 15.0782 17.3999 15.5837 17.3999C16.0949 17.3999 16.517 17.822 16.517 18.3333C16.517 18.8445 16.0949 19.2666 15.5837 19.2666C15.0782 19.2666 14.6595 18.8504 14.6595 18.3333Z" stroke="#424242" stroke-width="1.8"/>
</g>
<defs>
<clipPath id="clip0_224_42">
<rect width="22" height="22" fill="white"/>
</clipPath>
</defs>
</svg>
