<svg width="22" height="22" viewBox="0 0 22 22" fill="none" xmlns="http://www.w3.org/2000/svg">
<g clip-path="url(#clip0_224_73)">
<path d="M10.9908 1.83325C5.93081 1.83325 1.83331 5.93992 1.83331 10.9999C1.83331 16.0599 5.93081 20.1666 10.9908 20.1666C16.06 20.1666 20.1666 16.0599 20.1666 10.9999C20.1666 5.93992 16.06 1.83325 10.9908 1.83325ZM11 18.3333C6.94831 18.3333 3.66665 15.0516 3.66665 10.9999C3.66665 6.94825 6.94831 3.66659 11 3.66659C15.0516 3.66659 18.3333 6.94825 18.3333 10.9999C18.3333 15.0516 15.0516 18.3333 11 18.3333Z" fill="#424242"/>
<path d="M11.5 7H10V12.2459L15.25 15L16 13.9246L11.5 11.5902V7Z" fill="#424242"/>
</g>
<defs>
<clipPath id="clip0_224_73">
<rect width="22" height="22" fill="white"/>
</clipPath>
</defs>
</svg>
