<svg width="20" height="20" viewBox="0 0 20 20" fill="none" xmlns="http://www.w3.org/2000/svg">
<g clip-path="url(#clip0_811_3073)">
<path d="M14.168 5.83337H10.8346V7.50004H14.168C15.543 7.50004 16.668 8.62504 16.668 10C16.668 11.375 15.543 12.5 14.168 12.5H10.8346V14.1667H14.168C16.468 14.1667 18.3346 12.3 18.3346 10C18.3346 7.70004 16.468 5.83337 14.168 5.83337ZM9.16797 12.5H5.83464C4.45964 12.5 3.33464 11.375 3.33464 10C3.33464 8.62504 4.45964 7.50004 5.83464 7.50004H9.16797V5.83337H5.83464C3.53464 5.83337 1.66797 7.70004 1.66797 10C1.66797 12.3 3.53464 14.1667 5.83464 14.1667H9.16797V12.5ZM6.66797 9.16671H13.3346V10.8334H6.66797V9.16671Z" fill="#343434"/>
</g>
<defs>
<clipPath id="clip0_811_3073">
<rect width="20" height="20" fill="white"/>
</clipPath>
</defs>
</svg>
