<svg width="22" height="22" viewBox="0 0 22 22" fill="none" xmlns="http://www.w3.org/2000/svg">
<g clip-path="url(#clip0_224_84)">
<path d="M15.125 2.75C13.53 2.75 11.9992 3.4925 11 4.66583C10.0009 3.4925 8.47004 2.75 6.87504 2.75C4.05171 2.75 1.83337 4.96833 1.83337 7.79167C1.83337 11.2567 4.95004 14.08 9.67087 18.37L11 19.5708L12.3292 18.3608C17.05 14.08 20.1667 11.2567 20.1667 7.79167C20.1667 4.96833 17.9484 2.75 15.125 2.75ZM11.0917 17.0042L11 17.0958L10.9084 17.0042C6.54504 13.0533 3.66671 10.4408 3.66671 7.79167C3.66671 5.95833 5.04171 4.58333 6.87504 4.58333C8.28671 4.58333 9.66171 5.49083 10.1475 6.74667H11.8617C12.3384 5.49083 13.7134 4.58333 15.125 4.58333C16.9584 4.58333 18.3334 5.95833 18.3334 7.79167C18.3334 10.4408 15.455 13.0533 11.0917 17.0042Z" fill="#424242"/>
</g>
<defs>
<clipPath id="clip0_224_84">
<rect width="22" height="22" fill="white"/>
</clipPath>
</defs>
</svg>
