<svg width="30" height="30" viewBox="0 0 30 30" fill="none" xmlns="http://www.w3.org/2000/svg">
<g clip-path="url(#clip0_224_203)">
<path d="M25 10H21.25V5H3.75C2.375 5 1.25 6.125 1.25 7.5V21.25H3.75C3.75 23.325 5.425 25 7.5 25C9.575 25 11.25 23.325 11.25 21.25H18.75C18.75 23.325 20.425 25 22.5 25C24.575 25 26.25 23.325 26.25 21.25H28.75V15L25 10ZM7.5 23.125C6.4625 23.125 5.625 22.2875 5.625 21.25C5.625 20.2125 6.4625 19.375 7.5 19.375C8.5375 19.375 9.375 20.2125 9.375 21.25C9.375 22.2875 8.5375 23.125 7.5 23.125ZM24.375 11.875L26.825 15H21.25V11.875H24.375ZM22.5 23.125C21.4625 23.125 20.625 22.2875 20.625 21.25C20.625 20.2125 21.4625 19.375 22.5 19.375C23.5375 19.375 24.375 20.2125 24.375 21.25C24.375 22.2875 23.5375 23.125 22.5 23.125Z" fill="#3853A4"/>
</g>
<defs>
<clipPath id="clip0_224_203">
<rect width="30" height="30" fill="white"/>
</clipPath>
</defs>
</svg>
