<svg width="30" height="30" viewBox="0 0 30 30" fill="none" xmlns="http://www.w3.org/2000/svg">
<g clip-path="url(#clip0_224_196)">
<path d="M26.25 22.5V23.75C26.25 25.125 25.125 26.25 23.75 26.25H6.25C4.8625 26.25 3.75 25.125 3.75 23.75V6.25C3.75 4.875 4.8625 3.75 6.25 3.75H23.75C25.125 3.75 26.25 4.875 26.25 6.25V7.5H15C13.6125 7.5 12.5 8.625 12.5 10V20C12.5 21.375 13.6125 22.5 15 22.5H26.25ZM15 20H27.5V10H15V20ZM20 16.875C18.9625 16.875 18.125 16.0375 18.125 15C18.125 13.9625 18.9625 13.125 20 13.125C21.0375 13.125 21.875 13.9625 21.875 15C21.875 16.0375 21.0375 16.875 20 16.875Z" fill="#3853A4"/>
</g>
<defs>
<clipPath id="clip0_224_196">
<rect width="30" height="30" fill="white"/>
</clipPath>
</defs>
</svg>
