<svg width="20" height="20" viewBox="0 0 20 20" fill="none" xmlns="http://www.w3.org/2000/svg">
<g clip-path="url(#clip0_224_47)">
<path d="M10 17.313C9.88443 17.1754 9.75195 17.0154 9.60618 16.8358C9.06789 16.1726 8.35127 15.2447 7.63598 14.1845C6.9194 13.1224 6.21237 11.9397 5.68653 10.7659C5.15676 9.58342 4.83333 8.45894 4.83333 7.50008C4.83333 4.64327 7.14319 2.33341 10 2.33341C12.8568 2.33341 15.1667 4.64327 15.1667 7.50008C15.1667 8.45894 14.8432 9.58342 14.3135 10.7659C13.7876 11.9397 13.0806 13.1224 12.364 14.1845C11.6487 15.2447 10.9321 16.1726 10.3938 16.8358C10.248 17.0154 10.1156 17.1754 10 17.313ZM7.25 7.50008C7.25 9.01827 8.48181 10.2501 10 10.2501C11.5182 10.2501 12.75 9.01827 12.75 7.50008C12.75 5.98189 11.5182 4.75008 10 4.75008C8.48181 4.75008 7.25 5.98189 7.25 7.50008Z" stroke="#424242" stroke-width="1.33333"/>
</g>
<defs>
<clipPath id="clip0_224_47">
<rect width="20" height="20" fill="white"/>
</clipPath>
</defs>
</svg>
