<svg width="26" height="26" viewBox="0 0 26 26" fill="none" xmlns="http://www.w3.org/2000/svg">
<path d="M6.96067 19.021L9.2636 18.2526L9.6784 18.4544C10.6383 18.9202 11.7354 19.1684 12.9333 19.1684C16.8955 19.1684 19.7333 16.3373 19.7333 12.935C19.7333 9.52029 16.9159 6.70169 12.9333 6.70169C8.9508 6.70169 6.13333 9.52029 6.13333 12.935C6.14003 14.2418 6.57031 15.5111 7.3596 16.5526L7.74267 17.0626L6.96067 19.0199V19.021ZM6.1594 20.483C6.05684 20.5174 5.94659 20.5217 5.84167 20.4954C5.73675 20.4691 5.64154 20.4133 5.5673 20.3347C5.49305 20.256 5.44287 20.1578 5.42267 20.0515C5.40248 19.9453 5.41312 19.8354 5.45333 19.735L6.45407 17.2338C5.517 15.9959 5.00678 14.4875 5 12.935C5 9.17916 8.0396 5.56836 12.9333 5.56836C17.8271 5.56836 20.8667 9.17916 20.8667 12.935C20.8667 16.6909 17.7953 20.3017 12.9333 20.3017C11.5223 20.3017 10.2621 19.998 9.18427 19.4744L6.15827 20.483H6.1594Z" fill="#676C7A"/>
</svg>
