<svg width="26" height="26" viewBox="0 0 26 26" fill="none" xmlns="http://www.w3.org/2000/svg">
<path d="M9.36762 15.4C9.40013 15.4 9.43263 15.3967 9.46513 15.3919L12.1984 14.9125C12.2309 14.906 12.2618 14.8914 12.2845 14.867L19.1729 7.97862C19.1879 7.96359 19.1999 7.94573 19.208 7.92608C19.2162 7.90642 19.2204 7.88534 19.2204 7.86406C19.2204 7.84278 19.2162 7.82171 19.208 7.80205C19.1999 7.78239 19.1879 7.76453 19.1729 7.7495L16.4721 5.04713C16.4412 5.01625 16.4006 5 16.3567 5C16.3129 5 16.2723 5.01625 16.2414 5.04713L9.353 11.9355C9.32862 11.9599 9.314 11.9891 9.3075 12.0216L8.82812 14.7549C8.81232 14.8419 8.81797 14.9315 8.84458 15.0159C8.8712 15.1003 8.91798 15.1769 8.98087 15.2391C9.08812 15.3431 9.223 15.4 9.36762 15.4ZM10.4629 12.566L16.3567 6.67375L17.5479 7.86487L11.654 13.7571L10.2094 14.0122L10.4629 12.566ZM19.48 16.765H7.52C7.23237 16.765 7 16.9974 7 17.285V17.87C7 17.9415 7.0585 18 7.13 18H19.87C19.9415 18 20 17.9415 20 17.87V17.285C20 16.9974 19.7676 16.765 19.48 16.765Z" fill="#676C7A"/>
</svg>
