<svg width="16" height="17" viewBox="0 0 16 17" fill="none" xmlns="http://www.w3.org/2000/svg">
<g clip-path="url(#clip0_225_4031)">
<path d="M12 11.22C11.4933 11.22 11.04 11.42 10.6933 11.7334L5.94 8.96671C5.97333 8.81337 6 8.66004 6 8.50004C6 8.34004 5.97333 8.18671 5.94 8.03337L10.64 5.29337C11 5.62671 11.4733 5.83337 12 5.83337C13.1067 5.83337 14 4.94004 14 3.83337C14 2.72671 13.1067 1.83337 12 1.83337C10.8933 1.83337 10 2.72671 10 3.83337C10 3.99337 10.0267 4.14671 10.06 4.30004L5.36 7.04004C5 6.70671 4.52667 6.50004 4 6.50004C2.89333 6.50004 2 7.39337 2 8.50004C2 9.60671 2.89333 10.5 4 10.5C4.52667 10.5 5 10.2934 5.36 9.96004L10.1067 12.7334C10.0733 12.8734 10.0533 13.02 10.0533 13.1667C10.0533 14.24 10.9267 15.1134 12 15.1134C13.0733 15.1134 13.9467 14.24 13.9467 13.1667C13.9467 12.0934 13.0733 11.22 12 11.22Z" fill="#3D3D3D"/>
</g>
<defs>
<clipPath id="clip0_225_4031">
<rect width="16" height="16" fill="white" transform="translate(0 0.5)"/>
</clipPath>
</defs>
</svg>
