<svg width="23" height="23" viewBox="0 0 23 23" fill="none" xmlns="http://www.w3.org/2000/svg">
<g clip-path="url(#clip0_224_79)">
<path d="M11.5 5.12284C12.7127 5.12284 13.6954 6.10557 13.6954 7.31829C13.6954 8.53102 12.7127 9.51375 11.5 9.51375C10.2873 9.51375 9.30453 8.53102 9.30453 7.31829C9.30453 6.10557 10.2873 5.12284 11.5 5.12284ZM11.5 14.5319C14.605 14.5319 17.8773 16.0583 17.8773 16.7274V17.8774H5.12272V16.7274C5.12272 16.0583 8.39499 14.5319 11.5 14.5319ZM11.5 3.13647C9.18953 3.13647 7.31817 5.00784 7.31817 7.31829C7.31817 9.62875 9.18953 11.5001 11.5 11.5001C13.8104 11.5001 15.6818 9.62875 15.6818 7.31829C15.6818 5.00784 13.8104 3.13647 11.5 3.13647ZM11.5 12.5456C8.70862 12.5456 3.13635 13.9465 3.13635 16.7274V19.8637H19.8636V16.7274C19.8636 13.9465 14.2914 12.5456 11.5 12.5456Z" fill="#424242"/>
</g>
<defs>
<clipPath id="clip0_224_79">
<rect width="23" height="23" fill="white"/>
</clipPath>
</defs>
</svg>
