<svg width="40" height="40" viewBox="0 0 40 40" fill="none" xmlns="http://www.w3.org/2000/svg">
<g clip-path="url(#clip0_294_2961)">
<circle cx="20.5882" cy="20.5882" r="15.8824" fill="#3853A4"/>
<path d="M20.5468 9.99072C18.8378 9.99082 17.161 10.4564 15.6966 11.3375C14.2321 12.2185 13.0353 13.4818 12.2346 14.9917C11.4339 16.5016 11.0595 18.201 11.1517 19.9076C11.2439 21.6141 11.7991 23.2634 12.7578 24.6782L11.8383 28.2255L15.5353 27.3629C16.7695 28.1395 18.1674 28.6186 19.6186 28.7624C21.0697 28.9061 22.5345 28.7106 23.8971 28.1912C25.2597 27.6719 26.483 26.8429 27.4703 25.7697C28.4576 24.6965 29.182 23.4085 29.5862 22.0074C29.9904 20.6062 30.0634 19.1303 29.7994 17.6962C29.5354 16.262 28.9416 14.9088 28.065 13.7435C27.1884 12.5781 26.0529 11.6325 24.7481 10.9812C23.4434 10.3299 22.0051 9.99084 20.5468 9.99072ZM25.1734 24.5365C23.8574 25.1537 21.1098 24.8317 18.2152 22.3545C15.3206 19.8773 14.5781 17.2123 14.9843 15.8168C15.3906 14.4213 16.9867 14.1635 17.2878 14.2302C17.5889 14.2968 19.0945 16.6838 18.8893 16.9622C18.6842 17.2406 17.6932 18.2317 17.6932 18.2317C17.6932 18.2317 17.6515 19.2458 19.5122 20.8383C21.373 22.4308 22.3685 22.2329 22.3685 22.2329C22.3685 22.2329 23.1946 21.1001 23.4379 20.8549C23.6813 20.6096 26.2723 21.7284 26.3847 22.0156C26.497 22.3028 26.489 23.9195 25.173 24.5365H25.1734Z" fill="white"/>
<path d="M20 0C8.9543 0 0 8.9543 0 20C0 31.0457 8.9543 40 20 40C31.0457 40 40 31.0457 40 20C40 8.9543 31.0457 0 20 0ZM20.5469 30.7774C18.6695 30.7802 16.8208 30.3162 15.1672 29.4273L9.11719 30.9375L10.6496 25.0156C9.41477 22.8403 8.93109 20.3187 9.2734 17.8408C9.6157 15.363 10.7649 13.067 12.5433 11.3079C14.3216 9.54879 16.63 8.42469 19.1115 8.10942C21.5929 7.79415 24.1091 8.30528 26.2708 9.56377C28.4326 10.8222 30.1194 12.758 31.0705 15.0715C32.0216 17.385 32.1838 19.9475 31.5322 22.3625C30.8806 24.7775 29.4513 26.9105 27.4656 28.4316C25.4799 29.9527 23.0483 30.7772 20.5469 30.7774Z" fill="white"/>
</g>
<defs>
<clipPath id="clip0_294_2961">
<rect width="40" height="40" fill="white"/>
</clipPath>
</defs>
</svg>
