<svg width="19" height="19" viewBox="0 0 19 19" fill="none" xmlns="http://www.w3.org/2000/svg">
<path d="M10.9063 9.98617L10.4707 10.5669C10.4288 10.6228 10.3592 10.6517 10.2906 10.6386C8.83458 10.3611 7.92341 9.0248 7.64523 8.37572C7.60219 8.28064 7.93047 8.09047 8.3108 7.51998C8.60297 7.08172 7.92489 6.3746 7.50571 6.03845C7.47299 6.01221 7.43254 5.99824 7.39064 6.00018C6.79404 6.02782 5.61627 6.44072 6.1239 8.09047C6.88458 10.5626 9.4518 11.8938 10.878 12.084C12.3043 12.2741 12.7797 11.038 12.5895 10.5626C12.4483 10.2096 11.5864 9.99314 11.0831 9.91317C11.0151 9.90237 10.9476 9.93113 10.9063 9.98617Z" fill="#343434"/>
<path d="M9.27733 2.02531C1.20022 2.64197 1.61384 9.40752 3 12.4739L2 16.9739L6.15847 15.709C10.5018 17.5488 14.0519 15.4024 15.284 14.0992C19.096 10.0746 16.5 1.47388 9.27733 2.02531Z" stroke="#343434" stroke-width="1.5"/>
</svg>
