<?xml version="1.0" encoding="UTF-8" standalone="no"?>
<!-- Created with Inkscape (http://www.inkscape.org/) -->

<svg
   version="1.1"
   id="svg2"
   width="589.60669"
   height="517.76001"
   viewBox="0 0 589.60669 517.76001"
   sodipodi:docname="Лого М-инст.ai"
   xmlns:inkscape="http://www.inkscape.org/namespaces/inkscape"
   xmlns:sodipodi="http://sodipodi.sourceforge.net/DTD/sodipodi-0.dtd"
   xmlns="http://www.w3.org/2000/svg"
   xmlns:svg="http://www.w3.org/2000/svg">
  <defs
     id="defs6">
    <clipPath
       clipPathUnits="userSpaceOnUse"
       id="clipPath16">
      <path
         d="M 0,388.32 H 442.205 V 0 H 0 Z"
         id="path14" />
    </clipPath>
  </defs>
  <sodipodi:namedview
     id="namedview4"
     pagecolor="#ffffff"
     bordercolor="#000000"
     borderopacity="0.25"
     inkscape:showpageshadow="2"
     inkscape:pageopacity="0.0"
     inkscape:pagecheckerboard="0"
     inkscape:deskcolor="#d1d1d1" />
  <g
     id="g8"
     inkscape:groupmode="layer"
     inkscape:label="Лого М-инст"
     transform="matrix(1.3333333,0,0,-1.3333333,0,517.76)">
    <g
       id="g10">
      <g
         id="g12"
         clip-path="url(#clipPath16)">
        <g
           id="g18"
           transform="translate(174.98,168.8325)">
          <path
             d="m 0,0 c -2.606,0.448 -3.581,1.292 -6.062,2.668 -4.475,2.482 -8.974,4.907 -13.54,7.207 -8.645,4.373 -17.618,5.115 -26.852,2.187 -2.391,-0.754 -4.77,-1.553 -7.331,-1.485 -2.594,0.074 -4.94,0.839 -7.025,2.408 -5.755,4.328 -11.953,6.056 -18.944,3.625 -1.371,-0.481 -2.844,-0.838 -4.351,-0.634 -1.394,0.187 -1.994,0.821 -1.303,2.323 0.646,1.416 1.688,2.475 2.72,3.557 4.554,4.788 6.945,10.356 6.548,17.245 -0.305,5.41 1.462,10.01 5.881,13.534 8.157,6.504 12.134,15.466 13.256,25.89 0.148,1.359 4.272,24.711 11.183,33.096 3.365,4.073 17.143,14.644 20.837,18.542 5.212,5.517 8.554,10.956 9.766,19.55 0.805,5.574 3.501,9.523 8.656,11.715 7.06,2.997 9.62,7.569 11.501,13.953 0.442,1.519 0.691,3.122 1.677,4.425 1.065,1.382 2.016,1.354 2.912,-0.159 0.736,-1.246 1.065,-2.657 1.427,-4.056 1.677,-6.674 4.669,-11.675 11.206,-14.424 4.328,-1.818 7.648,-6.899 8.361,-11.851 1.326,-9.228 4.431,-14.435 9.054,-19.51 7.92,-8.702 17.924,-12.685 21.346,-19.047 0.362,-0.679 0.725,-1.405 1.076,-2.158 l 3.637,6.526 -51.02,92.608 c -3.456,4.311 -9.064,4.311 -12.701,0.119 L -111.184,9.971 c -2.221,-6.147 0.793,-13.268 6.979,-14.486 L -2.958,-5.331 Z"
             style="fill:#3852a4;fill-opacity:1;fill-rule:evenodd;stroke:none"
             id="path20" />
        </g>
        <g
           id="g22"
           transform="translate(366.6196,173.5518)">
          <path
             d="m 0,0 -74.791,133.318 c -2.345,2.883 -6.322,2.838 -8.758,0 L -158.385,-0.119 c -1.451,-4.141 1.314,-9.183 5.484,-9.97 h 3.58 l 7.897,14.111 c 0,0 0.442,0.686 0.804,1.479 0.431,0.957 1.36,1.529 2.051,2.266 3.037,3.246 4.611,7.008 4.317,11.642 -0.238,3.637 0.918,6.741 3.875,9.138 5.461,4.418 7.342,10.469 8.044,17.488 0.091,0.912 3.49,16.038 7.172,22.326 1.779,3.025 11.625,9.948 14.084,12.588 3.478,3.739 5.699,8.107 6.47,13.206 0.566,3.75 2.323,6.401 5.755,7.931 4.057,1.801 6.436,5.144 7.66,9.449 0.295,1.026 0.442,2.108 1.11,2.986 0.702,0.935 1.349,0.923 1.96,-0.091 0.499,-0.833 0.714,-1.784 0.975,-2.725 1.302,-4.713 3.207,-7.653 7.625,-9.642 2.867,-1.292 5.178,-4.594 5.688,-7.925 0.94,-6.198 3.059,-9.688 6.197,-13.081 5.382,-5.807 12.123,-8.43 14.469,-12.696 3.365,-6.135 5.768,-17.137 7.048,-22.247 1.337,-5.353 5.325,-14.338 9.472,-17.794 2.56,-2.147 3.716,-5.302 3.353,-8.775 -0.453,-4.289 0.748,-7.654 3.569,-10.9 0.896,-1.025 1.893,-1.955 2.55,-3.189 0.567,-1.048 0.215,-1.553 -0.839,-1.655 -1.371,-0.13 -2.629,0.397 -3.92,0.742 -4.283,1.156 -8.146,0.205 -11.59,-2.583 -2.346,-1.898 -4.986,-2.578 -7.661,-1.337 -6.412,2.963 -12.734,2.816 -19.181,0.182 -2.017,-0.822 -3.614,-2.306 -5.495,-3.331 -3.173,-1.717 -6.345,-3.433 -9.937,-3.944 -0.997,-0.141 -0.453,-0.124 -1.439,-0.153 l -1.892,-3.466 H -4.668 C 0.068,-9.217 1.644,-4.634 0,0"
             style="fill:#bf1e2d;fill-opacity:1;fill-rule:evenodd;stroke:none"
             id="path24" />
        </g>
        <g
           id="g26"
           transform="translate(182.4692,220.1304)">
          <path
             d="m 0,0 c -13.735,0 -24.873,11.138 -24.873,24.873 0,13.735 11.138,24.873 24.873,24.873 13.735,0 24.873,-11.138 24.873,-24.873 C 24.873,11.138 13.735,0 0,0 m 28.235,36.801 c -1.541,3.648 -3.751,6.928 -6.571,9.744 -2.81,2.81 -6.085,5.019 -9.733,6.566 C 8.146,54.708 4.135,55.519 0,55.519 c -4.136,0 -8.146,-0.811 -11.931,-2.408 -3.648,-1.547 -6.923,-3.756 -9.744,-6.566 -2.81,-2.816 -5.019,-6.096 -6.56,-9.744 -1.598,-3.779 -2.413,-7.795 -2.413,-11.931 0,-4.13 0.815,-8.146 2.413,-11.931 1.541,-3.648 3.75,-6.922 6.56,-9.738 2.821,-2.81 6.096,-5.019 9.744,-6.566 3.785,-1.597 7.795,-2.407 11.931,-2.407 4.135,0 8.146,0.81 11.931,2.407 3.648,1.547 6.923,3.756 9.733,6.566 2.82,2.816 5.03,6.09 6.571,9.738 1.598,3.785 2.413,7.801 2.413,11.931 0,4.136 -0.815,8.152 -2.413,11.931"
             style="fill:#bf1e2d;fill-opacity:1;fill-rule:nonzero;stroke:none"
             id="path28" />
        </g>
        <g
           id="g30"
           transform="translate(287.4956,189.7739)">
          <path
             d="m 0,0 c -13.704,0 -24.814,11.106 -24.814,24.813 0,13.707 11.11,24.813 24.814,24.813 13.703,0 24.812,-11.106 24.812,-24.813 C 24.812,11.106 13.703,0 0,0 m 28.161,36.719 c -1.541,3.642 -3.739,6.911 -6.549,9.715 -2.799,2.805 -6.073,5.008 -9.71,6.549 -3.785,1.598 -7.784,2.408 -11.908,2.408 -4.125,0 -8.136,-0.81 -11.897,-2.408 -3.648,-1.541 -6.911,-3.744 -9.722,-6.549 -2.809,-2.804 -5.007,-6.073 -6.548,-9.715 -1.598,-3.773 -2.402,-7.779 -2.402,-11.903 0,-4.124 0.804,-8.129 2.402,-11.902 1.541,-3.643 3.739,-6.912 6.548,-9.722 2.811,-2.804 6.074,-5.008 9.722,-6.548 3.761,-1.593 7.772,-2.408 11.897,-2.408 4.124,0 8.123,0.815 11.908,2.408 3.637,1.54 6.911,3.744 9.71,6.548 2.81,2.81 5.008,6.079 6.549,9.722 1.598,3.773 2.413,7.778 2.413,11.902 0,4.124 -0.815,8.13 -2.413,11.903"
             style="fill:#262261;fill-opacity:1;fill-rule:nonzero;stroke:none"
             id="path32" />
        </g>
        <g
           id="g34"
           transform="translate(182.4692,205.1689)">
          <path
             d="M 0,0 C -22,0 -39.834,17.834 -39.834,39.834 -39.834,61.835 -22,79.669 0,79.669 22,79.669 39.834,61.835 39.834,39.834 39.834,17.834 22,0 0,0 m 38.761,56.209 c -2.13,5.008 -5.156,9.507 -9.019,13.365 -3.864,3.863 -8.362,6.894 -13.37,9.013 C 11.183,80.779 5.676,81.895 0,81.895 c -5.677,0 -11.183,-1.116 -16.373,-3.308 -5.007,-2.119 -9.505,-5.15 -13.369,-9.013 -3.863,-3.858 -6.9,-8.357 -9.008,-13.365 -2.198,-5.189 -3.308,-10.701 -3.308,-16.377 0,-5.677 1.11,-11.184 3.308,-16.367 2.108,-5.014 5.145,-9.512 9.008,-13.37 3.864,-3.864 8.362,-6.9 13.369,-9.019 5.19,-2.192 10.696,-3.303 16.373,-3.303 5.676,0 11.183,1.111 16.372,3.303 5.008,2.119 9.506,5.155 13.37,9.019 3.863,3.858 6.889,8.356 9.019,13.37 2.186,5.183 3.297,10.69 3.297,16.367 0,5.676 -1.111,11.188 -3.297,16.377"
             style="fill:#262261;fill-opacity:1;fill-rule:nonzero;stroke:none"
             id="path36" />
        </g>
        <g
           id="g38"
           transform="translate(65.0649,72.0264)">
          <path
             d="M 0,0 V 44.33 H 44.333 V 0 H 37.999 V 37.997 H 25.332 V 0 H 18.998 V 37.997 H 6.333 L 6.333,0 Z"
             style="fill:#262261;fill-opacity:1;fill-rule:nonzero;stroke:none"
             id="path40" />
        </g>
        <path
           d="M 118.895,97.361 H 150.56 V 91.027 H 118.895 Z"
           style="fill:#262261;fill-opacity:1;fill-rule:nonzero;stroke:none"
           id="path42" />
        <g
           id="g44"
           transform="translate(160.0605,72.0264)">
          <path
             d="M 0,0 V 44.33 H 6.334 V 6.334 H 18.998 V 44.33 H 44.333 V 0 H 37.999 V 37.997 H 25.332 L 25.332,0 Z"
             style="fill:#262261;fill-opacity:1;fill-rule:nonzero;stroke:none"
             id="path46" />
        </g>
        <g
           id="g48"
           transform="translate(213.8906,72.0264)">
          <path
             d="M 0,0 V 44.33 H 6.334 V 25.335 H 37.999 V 44.33 h 6.334 V 0 H 37.999 V 19.001 H 6.334 L 6.334,0 Z"
             style="fill:#262261;fill-opacity:1;fill-rule:nonzero;stroke:none"
             id="path50" />
        </g>
        <g
           id="g52"
           transform="translate(267.7236,72.0264)">
          <path
             d="M 0,0 V 44.33 H 44.33 V 31.663 h -6.333 v 6.334 H 6.333 V 6.334 h 31.664 v 6.334 H 44.33 V 0 Z"
             style="fill:#262261;fill-opacity:1;fill-rule:nonzero;stroke:none"
             id="path54" />
        </g>
        <g
           id="g56"
           transform="translate(340.5552,72.0264)">
          <path
             d="M 0,0 V 37.997 H -19.001 V 44.33 H 25.328 V 37.997 H 6.333 L 6.333,0 Z"
             style="fill:#262261;fill-opacity:1;fill-rule:nonzero;stroke:none"
             id="path58" />
        </g>
        <g
           id="g60"
           transform="translate(8.5039,38.2852)">
          <path
             d="M 0,0 H 3.643 V -16.247 H 3.722 L 14.132,0 h 4.175 v -21.193 h -3.66 V -4.945 H 14.568 L 4.175,-21.193 H 0 Z"
             style="fill:#262261;fill-opacity:1;fill-rule:nonzero;stroke:none"
             id="path62" />
        </g>
        <g
           id="g64"
           transform="translate(32.1533,38.2852)">
          <path
             d="m 0,0 h 3.643 v -8.549 h 9.894 V 0 h 3.662 v -21.193 h -3.662 v 9.477 H 3.643 v -9.477 H 0 Z"
             style="fill:#262261;fill-opacity:1;fill-rule:nonzero;stroke:none"
             id="path66" />
        </g>
        <g
           id="g68"
           transform="translate(71.3589,24.5527)">
          <path
             d="m 0,0 c -0.051,-0.516 -0.156,-1.076 -0.306,-1.683 -0.153,-0.605 -0.374,-1.212 -0.663,-1.812 -0.292,-0.601 -0.663,-1.173 -1.119,-1.728 -0.456,-0.555 -1.008,-1.048 -1.662,-1.478 -0.652,-0.425 -1.422,-0.771 -2.306,-1.026 -0.884,-0.26 -1.892,-0.385 -3.028,-0.385 -0.621,0 -1.272,0.074 -1.96,0.226 -0.685,0.154 -1.354,0.408 -2.009,0.76 -0.651,0.356 -1.271,0.815 -1.858,1.376 -0.589,0.562 -1.102,1.258 -1.544,2.091 -0.444,0.827 -0.795,1.796 -1.059,2.9 -0.263,1.099 -0.396,2.363 -0.396,3.79 0,1.75 0.249,3.331 0.753,4.737 0.501,1.404 1.17,2.594 2.009,3.574 0.835,0.974 1.812,1.727 2.928,2.255 1.114,0.526 2.286,0.793 3.512,0.793 1.108,0 2.088,-0.119 2.938,-0.357 0.853,-0.238 1.595,-0.555 2.229,-0.952 0.632,-0.396 1.167,-0.855 1.601,-1.377 0.436,-0.52 0.79,-1.064 1.059,-1.642 0.272,-0.573 0.476,-1.156 0.615,-1.75 C -0.127,7.716 -0.04,7.149 0,6.611 h -3.405 c -0.184,1.44 -0.682,2.567 -1.492,3.382 -0.813,0.822 -1.949,1.23 -3.414,1.23 -1.002,0 -1.878,-0.204 -2.623,-0.612 -0.745,-0.414 -1.365,-0.98 -1.861,-1.716 -0.496,-0.731 -0.864,-1.615 -1.107,-2.652 -0.244,-1.037 -0.366,-2.176 -0.366,-3.41 0,-1.399 0.131,-2.606 0.394,-3.614 0.264,-1.009 0.64,-1.842 1.13,-2.493 0.487,-0.652 1.085,-1.133 1.79,-1.445 0.705,-0.311 1.507,-0.465 2.405,-0.465 0.632,0 1.233,0.114 1.802,0.346 0.566,0.233 1.073,0.567 1.524,1.009 0.447,0.441 0.829,0.985 1.147,1.631 0.317,0.646 0.541,1.383 0.671,2.198 z"
             style="fill:#262261;fill-opacity:1;fill-rule:nonzero;stroke:none"
             id="path70" />
        </g>
        <g
           id="g72"
           transform="translate(80.6016,35.124)">
          <path
             d="M 0,0 H -7.302 V 3.161 H 10.945 V 0 H 3.643 V -18.032 H 0 Z"
             style="fill:#262261;fill-opacity:1;fill-rule:nonzero;stroke:none"
             id="path74" />
        </g>
        <g
           id="g76"
           transform="translate(98.5938,27.584)">
          <path
             d="m 0,0 c 0,-1.15 0.114,-2.21 0.337,-3.179 0.224,-0.968 0.57,-1.812 1.04,-2.526 0.467,-0.708 1.054,-1.269 1.759,-1.671 0.708,-0.402 1.541,-0.601 2.504,-0.601 1.003,0 1.872,0.199 2.603,0.601 0.734,0.402 1.337,0.963 1.81,1.671 0.476,0.714 0.824,1.558 1.051,2.526 0.224,0.969 0.334,2.029 0.334,3.179 0,1.195 -0.11,2.3 -0.334,3.303 C 10.877,4.306 10.529,5.167 10.053,5.897 9.58,6.622 8.977,7.184 8.243,7.586 7.512,7.987 6.643,8.191 5.64,8.191 4.677,8.191 3.844,7.987 3.136,7.586 2.431,7.184 1.844,6.622 1.377,5.897 0.907,5.167 0.561,4.306 0.337,3.303 0.114,2.3 0,1.195 0,0 M -3.563,10.701 H 0.08 V 7.795 h 0.079 c 0.238,0.487 0.538,0.952 0.901,1.383 0.362,0.435 0.798,0.815 1.305,1.138 0.508,0.323 1.094,0.578 1.762,0.765 0.666,0.182 1.428,0.277 2.286,0.277 1.133,0 2.224,-0.22 3.266,-0.657 1.04,-0.43 1.966,-1.088 2.77,-1.954 0.805,-0.873 1.445,-1.966 1.918,-3.28 0.476,-1.309 0.714,-2.838 0.714,-4.577 0,-2.182 -0.221,-4.029 -0.663,-5.552 -0.442,-1.525 -1.068,-2.771 -1.881,-3.734 -0.81,-0.962 -1.79,-1.66 -2.937,-2.096 -1.15,-0.436 -2.428,-0.652 -3.841,-0.652 -0.7,0 -1.351,0.091 -1.96,0.278 -0.607,0.181 -1.151,0.425 -1.632,0.72 -0.481,0.3 -0.895,0.628 -1.238,0.991 -0.343,0.363 -0.6,0.714 -0.77,1.059 H 0.08 v -10.747 h -3.643 z"
             style="fill:#262261;fill-opacity:1;fill-rule:nonzero;stroke:none"
             id="path78" />
        </g>
        <g
           id="g80"
           transform="translate(115.5552,38.2852)">
          <path
             d="m 0,0 h 3.997 l 5.64,-17.256 H 9.716 L 15.358,0 h 3.997 L 11.26,-22.043 c -0.408,-1.11 -0.785,-2.073 -1.128,-2.89 -0.342,-0.821 -0.679,-1.517 -1.008,-2.089 -0.332,-0.573 -0.663,-1.038 -1,-1.394 -0.337,-0.357 -0.705,-0.635 -1.107,-0.845 -0.406,-0.203 -0.853,-0.34 -1.349,-0.413 -0.493,-0.073 -1.065,-0.107 -1.71,-0.107 -0.527,0 -0.941,0.022 -1.238,0.067 -0.295,0.046 -0.556,0.103 -0.783,0.17 v 3.286 c 0.239,-0.079 0.55,-0.158 0.933,-0.238 0.382,-0.079 0.784,-0.118 1.206,-0.118 0.674,0 1.218,0.158 1.632,0.481 0.416,0.322 0.736,0.781 0.96,1.376 l 1.187,2.991 z"
             style="fill:#262261;fill-opacity:1;fill-rule:nonzero;stroke:none"
             id="path82" />
        </g>
        <g
           id="g84"
           transform="translate(138.0376,38.2852)">
          <path
             d="m 0,0 h 5.305 l 5.6,-17.375 h 0.079 L 16.664,0 h 4.988 v -21.193 h -3.405 v 17.057 h -0.079 l -5.6,-17.057 H 9.084 l -5.6,17.057 H 3.405 V -21.193 H 0 Z"
             style="fill:#262261;fill-opacity:1;fill-rule:nonzero;stroke:none"
             id="path86" />
        </g>
        <g
           id="g88"
           transform="translate(179.6592,29.3232)">
          <path
             d="M 0,0 C -0.028,1.031 -0.184,1.943 -0.467,2.753 -0.75,3.558 -1.147,4.231 -1.654,4.781 -2.161,5.325 -2.773,5.744 -3.484,6.027 -4.198,6.311 -4.988,6.452 -5.86,6.452 -6.69,6.452 -7.455,6.288 -8.155,5.965 -8.854,5.643 -9.469,5.194 -9.996,4.623 -10.523,4.045 -10.945,3.365 -11.262,2.583 -11.58,1.796 -11.769,0.935 -11.837,0 Z M 3.422,-5.461 C 3.277,-6.385 2.96,-7.291 2.473,-8.175 1.986,-9.059 1.346,-9.852 0.552,-10.549 c -0.79,-0.702 -1.725,-1.263 -2.798,-1.693 -1.077,-0.425 -2.266,-0.641 -3.575,-0.641 -1.425,0 -2.739,0.233 -3.946,0.702 -1.209,0.465 -2.252,1.173 -3.127,2.119 -0.878,0.941 -1.569,2.125 -2.07,3.552 -0.502,1.422 -0.751,3.1 -0.751,5.026 0,1.292 0.142,2.463 0.425,3.512 0.283,1.048 0.665,1.989 1.147,2.81 0.481,0.827 1.039,1.535 1.674,2.136 0.632,0.6 1.303,1.098 2.009,1.484 0.705,0.391 1.427,0.68 2.167,0.872 0.739,0.193 1.45,0.289 2.138,0.289 1.45,0 2.776,-0.221 3.977,-0.657 C -0.977,8.531 0.054,7.869 0.918,6.974 1.782,6.084 2.456,4.968 2.938,3.631 3.419,2.294 3.66,0.72 3.66,-1.088 v -1.824 h -15.497 c 0.014,-1.026 0.158,-1.96 0.436,-2.799 0.277,-0.838 0.674,-1.552 1.187,-2.146 0.515,-0.595 1.138,-1.054 1.872,-1.377 0.731,-0.324 1.558,-0.482 2.482,-0.482 0.937,0 1.73,0.13 2.376,0.397 0.646,0.26 1.187,0.594 1.623,1.008 0.433,0.408 0.787,0.861 1.059,1.366 0.269,0.498 0.496,0.997 0.683,1.484 z"
             style="fill:#262261;fill-opacity:1;fill-rule:nonzero;stroke:none"
             id="path90" />
        </g>
        <g
           id="g92"
           transform="translate(187.5732,38.2852)">
          <path
             d="m 0,0 h 3.643 v -8.549 h 9.894 V 0 H 17.2 v -21.193 h -3.663 v 9.477 H 3.643 v -9.477 H 0 Z"
             style="fill:#262261;fill-opacity:1;fill-rule:nonzero;stroke:none"
             id="path94" />
        </g>
        <g
           id="g96"
           transform="translate(215.7549,35.124)">
          <path
             d="M 0,0 H -7.303 V 3.161 H 10.945 V 0 H 3.643 V -18.032 H 0 Z"
             style="fill:#262261;fill-opacity:1;fill-rule:nonzero;stroke:none"
             id="path98" />
        </g>
        <path
           d="m 250.649,38.285 h 3.643 V 17.092 h -3.643 z M 234.025,20.004 h 5.64 c 0.634,0 1.223,0.062 1.77,0.192 0.549,0.137 1.02,0.352 1.416,0.647 0.397,0.294 0.705,0.679 0.929,1.149 0.224,0.465 0.337,1.037 0.337,1.711 0,0.657 -0.116,1.218 -0.346,1.683 -0.231,0.459 -0.555,0.839 -0.971,1.138 -0.414,0.295 -0.915,0.51 -1.504,0.652 -0.587,0.136 -1.235,0.21 -1.949,0.21 h -5.322 z m -3.643,18.281 h 3.643 v -7.971 h 6.373 c 1.147,0 2.178,-0.158 3.096,-0.464 0.918,-0.312 1.691,-0.753 2.325,-1.331 0.635,-0.573 1.119,-1.264 1.456,-2.074 0.332,-0.815 0.502,-1.727 0.502,-2.742 0,-1.031 -0.17,-1.948 -0.502,-2.765 -0.337,-0.809 -0.821,-1.501 -1.456,-2.073 -0.634,-0.578 -1.407,-1.013 -2.325,-1.32 -0.918,-0.3 -1.949,-0.453 -3.096,-0.453 h -10.016 z"
           style="fill:#262261;fill-opacity:1;fill-rule:nonzero;stroke:none"
           id="path100" />
        <g
           id="g102"
           transform="translate(270.9189,38.2852)">
          <path
             d="M 0,0 H 3.637 V -16.247 H 3.716 L 14.128,0 h 4.176 v -21.193 h -3.66 V -4.945 H 14.565 L 4.175,-21.193 H 0 Z"
             style="fill:#262261;fill-opacity:1;fill-rule:nonzero;stroke:none"
             id="path104" />
        </g>
        <g
           id="g106"
           transform="translate(322.4946,24.5527)">
          <path
             d="M 0,0 C -0.052,-0.516 -0.153,-1.076 -0.307,-1.683 -0.459,-2.288 -0.68,-2.895 -0.969,-3.495 -1.258,-4.096 -1.632,-4.668 -2.085,-5.223 -2.544,-5.778 -3.1,-6.271 -3.751,-6.701 c -0.651,-0.425 -1.422,-0.771 -2.306,-1.026 -0.883,-0.26 -1.891,-0.385 -3.024,-0.385 -0.624,0 -1.275,0.074 -1.961,0.226 -0.686,0.154 -1.359,0.408 -2.011,0.76 -0.651,0.356 -1.274,0.815 -1.858,1.376 -0.589,0.562 -1.105,1.258 -1.546,2.091 -0.442,0.827 -0.794,1.796 -1.06,2.9 -0.26,1.099 -0.391,2.363 -0.391,3.79 0,1.75 0.25,3.331 0.748,4.737 0.504,1.404 1.173,2.594 2.012,3.574 0.837,0.974 1.812,1.727 2.928,2.255 1.116,0.526 2.283,0.793 3.512,0.793 1.11,0 2.091,-0.119 2.94,-0.357 0.85,-0.238 1.592,-0.555 2.227,-0.952 0.635,-0.396 1.167,-0.855 1.604,-1.377 0.435,-0.52 0.787,-1.064 1.059,-1.642 0.266,-0.573 0.47,-1.156 0.611,-1.75 C -0.131,7.716 -0.04,7.149 0,6.611 h -3.405 c -0.181,1.44 -0.68,2.567 -1.495,3.382 -0.811,0.822 -1.95,1.23 -3.412,1.23 -1.001,0 -1.875,-0.204 -2.622,-0.612 -0.748,-0.414 -1.365,-0.98 -1.858,-1.716 -0.499,-0.731 -0.867,-1.615 -1.11,-2.652 -0.244,-1.037 -0.369,-2.176 -0.369,-3.41 0,-1.399 0.136,-2.606 0.397,-3.614 0.266,-1.009 0.64,-1.842 1.127,-2.493 0.487,-0.652 1.088,-1.133 1.79,-1.445 0.709,-0.311 1.513,-0.465 2.408,-0.465 0.635,0 1.235,0.114 1.802,0.346 0.566,0.233 1.076,0.567 1.523,1.009 0.448,0.441 0.833,0.985 1.145,1.631 0.317,0.646 0.544,1.383 0.674,2.198 z"
             style="fill:#262261;fill-opacity:1;fill-rule:nonzero;stroke:none"
             id="path108" />
        </g>
        <g
           id="g110"
           transform="translate(340.7192,29.3232)">
          <path
             d="m 0,0 c -0.022,1.031 -0.182,1.943 -0.465,2.753 -0.283,0.805 -0.68,1.478 -1.183,2.028 -0.51,0.544 -1.123,0.963 -1.836,1.246 -0.708,0.284 -1.501,0.425 -2.374,0.425 -0.832,0 -1.597,-0.164 -2.294,-0.487 C -8.854,5.643 -9.467,5.194 -9.993,4.623 -10.521,4.045 -10.945,3.365 -11.263,2.583 -11.574,1.796 -11.767,0.935 -11.835,0 Z M 3.428,-5.461 C 3.28,-6.385 2.963,-7.291 2.476,-8.175 1.988,-9.059 1.348,-9.852 0.555,-10.549 c -0.793,-0.702 -1.722,-1.263 -2.798,-1.693 -1.077,-0.425 -2.267,-0.641 -3.575,-0.641 -1.422,0 -2.743,0.233 -3.949,0.702 -1.207,0.465 -2.249,1.173 -3.127,2.119 -0.878,0.941 -1.564,2.125 -2.068,3.552 -0.498,1.422 -0.753,3.1 -0.753,5.026 0,1.292 0.142,2.463 0.43,3.512 0.284,1.048 0.663,1.989 1.144,2.81 0.482,0.827 1.043,1.535 1.672,2.136 0.634,0.6 1.303,1.098 2.011,1.484 0.708,0.391 1.428,0.68 2.17,0.872 0.736,0.193 1.45,0.289 2.136,0.289 1.45,0 2.775,-0.221 3.976,-0.657 C -0.975,8.531 0.057,7.869 0.923,6.974 1.784,6.084 2.459,4.968 2.94,3.631 3.422,2.294 3.665,0.72 3.665,-1.088 v -1.824 h -15.5 c 0.012,-1.026 0.159,-1.96 0.437,-2.799 0.277,-0.838 0.673,-1.552 1.189,-2.146 0.51,-0.595 1.139,-1.054 1.87,-1.377 0.731,-0.324 1.558,-0.482 2.481,-0.482 0.94,0 1.728,0.13 2.374,0.397 0.645,0.26 1.189,0.594 1.626,1.008 0.436,0.408 0.787,0.861 1.059,1.366 0.267,0.498 0.498,0.997 0.68,1.484 z"
             style="fill:#262261;fill-opacity:1;fill-rule:nonzero;stroke:none"
             id="path112" />
        </g>
        <g
           id="g114"
           transform="translate(351.9985,27.584)">
          <path
             d="m 0,0 c 0,-1.15 0.113,-2.21 0.34,-3.179 0.221,-0.968 0.572,-1.812 1.036,-2.526 0.471,-0.708 1.06,-1.269 1.763,-1.671 0.708,-0.402 1.541,-0.601 2.504,-0.601 1.003,0 1.869,0.199 2.605,0.601 0.731,0.402 1.331,0.963 1.808,1.671 0.475,0.714 0.827,1.558 1.048,2.526 0.226,0.969 0.339,2.029 0.339,3.179 0,1.195 -0.113,2.3 -0.339,3.303 C 10.883,4.306 10.531,5.167 10.056,5.897 9.579,6.622 8.979,7.184 8.248,7.586 7.512,7.987 6.646,8.191 5.643,8.191 4.68,8.191 3.847,7.987 3.139,7.586 2.436,7.184 1.847,6.622 1.376,5.897 0.912,5.167 0.561,4.306 0.34,3.303 0.113,2.3 0,1.195 0,0 M -3.558,10.701 H 0.079 V 7.795 h 0.079 c 0.238,0.487 0.538,0.952 0.902,1.383 0.362,0.435 0.798,0.815 1.308,1.138 0.51,0.323 1.093,0.578 1.762,0.765 0.663,0.182 1.428,0.277 2.283,0.277 1.139,0 2.227,-0.22 3.269,-0.657 1.042,-0.43 1.965,-1.088 2.77,-1.954 0.804,-0.873 1.444,-1.966 1.92,-3.28 0.477,-1.309 0.708,-2.838 0.708,-4.577 0,-2.182 -0.221,-4.029 -0.662,-5.552 -0.442,-1.525 -1.065,-2.771 -1.876,-3.734 -0.815,-0.962 -1.795,-1.66 -2.939,-2.096 -1.151,-0.436 -2.431,-0.652 -3.841,-0.652 -0.698,0 -1.355,0.091 -1.961,0.278 -0.606,0.181 -1.15,0.425 -1.631,0.72 -0.482,0.3 -0.896,0.628 -1.235,0.991 -0.346,0.363 -0.601,0.714 -0.777,1.059 H 0.079 v -10.747 h -3.637 z"
             style="fill:#262261;fill-opacity:1;fill-rule:nonzero;stroke:none"
             id="path116" />
        </g>
        <g
           id="g118"
           transform="translate(374.8179,20.0039)">
          <path
             d="m 0,0 h 5.546 c 0.963,0 1.762,0.073 2.402,0.227 0.64,0.147 1.15,0.368 1.535,0.663 0.379,0.289 0.652,0.639 0.81,1.047 0.159,0.409 0.238,0.873 0.238,1.382 0,0.516 -0.079,0.981 -0.238,1.4 C 10.135,5.133 9.862,5.483 9.483,5.768 9.098,6.051 8.588,6.266 7.948,6.419 7.308,6.571 6.509,6.646 5.546,6.646 H 0 Z m 0,9.319 h 5.506 c 1.223,0 2.192,0.244 2.906,0.731 0.714,0.487 1.071,1.246 1.071,2.277 0,0.578 -0.102,1.066 -0.3,1.456 -0.199,0.386 -0.459,0.702 -0.787,0.941 -0.334,0.238 -0.703,0.402 -1.123,0.504 -0.413,0.096 -0.837,0.147 -1.274,0.147 l -5.999,0 z m -3.638,8.962 h 9.026 c 2.583,0 4.52,-0.481 5.806,-1.444 1.285,-0.963 1.932,-2.357 1.932,-4.192 0,-0.98 -0.238,-1.802 -0.714,-2.476 C 11.937,9.495 11.308,8.905 10.531,8.39 11.653,7.965 12.542,7.359 13.205,6.565 13.862,5.778 14.19,4.753 14.19,3.501 14.19,2.51 14.026,1.62 13.698,0.827 13.369,0.04 12.865,-0.635 12.191,-1.189 11.522,-1.745 10.667,-2.17 9.631,-2.464 8.594,-2.765 7.37,-2.912 5.959,-2.912 h -9.597 z"
             style="fill:#262261;fill-opacity:1;fill-rule:nonzero;stroke:none"
             id="path120" />
        </g>
        <g
           id="g122"
           transform="translate(393.3882,38.2852)">
          <path
             d="M 0,0 H 3.637 V -16.247 H 3.716 L 14.129,0 h 4.175 V -21.193 H 14.645 V -4.945 H 14.564 L 4.175,-21.193 H 0 Z"
             style="fill:#262261;fill-opacity:1;fill-rule:nonzero;stroke:none"
             id="path124" />
        </g>
        <g
           id="g126"
           transform="translate(433.7007,24.5527)">
          <path
             d="m 0,0 c -0.051,-0.516 -0.152,-1.076 -0.306,-1.683 -0.153,-0.605 -0.374,-1.212 -0.663,-1.812 -0.289,-0.601 -0.662,-1.173 -1.116,-1.728 -0.458,-0.555 -1.014,-1.048 -1.665,-1.478 -0.651,-0.425 -1.422,-0.771 -2.306,-1.026 -0.883,-0.26 -1.892,-0.385 -3.025,-0.385 -0.623,0 -1.274,0.074 -1.96,0.226 -0.686,0.154 -1.359,0.408 -2.011,0.76 -0.652,0.356 -1.275,0.815 -1.858,1.376 -0.59,0.562 -1.105,1.258 -1.547,2.091 -0.441,0.827 -0.793,1.796 -1.06,2.9 -0.26,1.099 -0.39,2.363 -0.39,3.79 0,1.75 0.249,3.331 0.748,4.737 0.504,1.404 1.173,2.594 2.011,3.574 0.838,0.974 1.813,1.727 2.928,2.255 1.116,0.526 2.283,0.793 3.513,0.793 1.11,0 2.091,-0.119 2.94,-0.357 0.85,-0.238 1.592,-0.555 2.227,-0.952 0.634,-0.396 1.167,-0.855 1.603,-1.377 0.436,-0.52 0.788,-1.064 1.059,-1.642 0.267,-0.573 0.471,-1.156 0.612,-1.75 C -0.13,7.716 -0.039,7.149 0,6.611 h -3.404 c -0.182,1.44 -0.68,2.567 -1.496,3.382 -0.81,0.822 -1.949,1.23 -3.411,1.23 -1.002,0 -1.875,-0.204 -2.623,-0.612 -0.748,-0.414 -1.365,-0.98 -1.858,-1.716 -0.498,-0.731 -0.866,-1.615 -1.11,-2.652 -0.244,-1.037 -0.369,-2.176 -0.369,-3.41 0,-1.399 0.137,-2.606 0.397,-3.614 0.267,-1.009 0.641,-1.842 1.128,-2.493 0.487,-0.652 1.088,-1.133 1.79,-1.445 0.708,-0.311 1.513,-0.465 2.407,-0.465 0.635,0 1.236,0.114 1.802,0.346 0.566,0.233 1.076,0.567 1.524,1.009 0.448,0.441 0.832,0.985 1.145,1.631 0.316,0.646 0.543,1.383 0.674,2.198 z"
             style="fill:#262261;fill-opacity:1;fill-rule:nonzero;stroke:none"
             id="path128" />
        </g>
      </g>
    </g>
  </g>
</svg>
